<svg width="10" height="10" viewBox="0 0 10 10" fill="none" xmlns="http://www.w3.org/2000/svg">
<path d="M1.24991 2.08341H8.74991C8.82585 2.08365 8.90028 2.10459 8.96519 2.14399C9.03011 2.18338 9.08306 2.23973 9.11833 2.30698C9.1536 2.37422 9.16987 2.44981 9.16537 2.52561C9.16088 2.60141 9.1358 2.67455 9.09283 2.73716L5.34283 8.15383C5.18741 8.37841 4.81325 8.37841 4.65741 8.15383L0.907414 2.73716C0.864007 2.67469 0.838553 2.60151 0.833816 2.52558C0.829079 2.44965 0.84524 2.37388 0.880544 2.30649C0.915849 2.2391 0.968945 2.18268 1.03407 2.14335C1.09919 2.10402 1.17384 2.08329 1.24991 2.08341Z" fill="white"/>
</svg>
