<svg xmlns="http://www.w3.org/2000/svg" viewBox="0 0 100 125" x="0px" y="0px"><title>Creator Icon_34_02</title><path d="M60.5835,45.583a1.50007,1.50007,0,0,0-1.5,1.5,12.01344,12.01344,0,0,1-12,12,1.5,1.5,0,0,0,0,3,15.01672,15.01672,0,0,0,15-15A1.50007,1.50007,0,0,0,60.5835,45.583Z"/><path d="M72.35205,70.23145,62.14063,60.0191a19.93385,19.93385,0,1,0-2.12109,2.12109L70.231,72.35254a1.49984,1.49984,0,0,0,2.12109-2.12109ZM47.0835,63.958a16.875,16.875,0,1,1,16.875-16.875A16.89439,16.89439,0,0,1,47.0835,63.958Z"/><text x="0" y="115" fill="#000000" font-size="5px" font-weight="bold" font-family="'Helvetica Neue', Helvetica, Arial-Unicode, Arial, Sans-serif">Created by sasicreatives</text><text x="0" y="120" fill="#000000" font-size="5px" font-weight="bold" font-family="'Helvetica Neue', Helvetica, Arial-Unicode, Arial, Sans-serif">from the Noun Project</text></svg>