<svg width="16" height="16" viewBox="0 0 16 16" fill="none" xmlns="http://www.w3.org/2000/svg">
<path d="M2.16667 14.9168H13.8333C14.3417 14.9168 14.8292 14.7149 15.1886 14.3555C15.5481 13.996 15.75 13.5085 15.75 13.0002V5.50016C15.75 4.99183 15.5481 4.50432 15.1886 4.14487C14.8292 3.78543 14.3417 3.5835 13.8333 3.5835H2.16667C1.65834 3.5835 1.17082 3.78543 0.811379 4.14487C0.451934 4.50432 0.25 4.99183 0.25 5.50016V13.0002C0.25 13.5085 0.451934 13.996 0.811378 14.3555C1.17082 14.7149 1.65833 14.9168 2.16667 14.9168Z" stroke="#3A3A3A" stroke-width="0.5"/>
<path d="M11.2788 9.72157C11.4038 9.84659 11.5734 9.91683 11.7502 9.91683C11.927 9.91683 12.0965 9.84659 12.2216 9.72157C12.3466 9.59654 12.4168 9.42697 12.4168 9.25016C12.4168 9.07335 12.3466 8.90378 12.2216 8.77876C12.0965 8.65373 11.927 8.5835 11.7502 8.5835C11.5734 8.5835 11.4038 8.65373 11.2788 8.77876C11.1537 8.90378 11.0835 9.07335 11.0835 9.25016C11.0835 9.42697 11.1537 9.59654 11.2788 9.72157Z" fill="#3A3A3A" stroke="#3A3A3A" stroke-width="0.5" stroke-linecap="round" stroke-linejoin="round"/>
<mask id="path-3-outside-1_914_4278" maskUnits="userSpaceOnUse" x="-0.5" y="0.00292969" width="14" height="6" fill="black">
<rect fill="white" x="-0.5" y="0.00292969" width="14" height="6"/>
<path d="M13 3.8333V2.66913C12.9999 2.41372 12.9412 2.16174 12.8282 1.93265C12.7153 1.70356 12.5512 1.50349 12.3487 1.34789C12.1461 1.1923 11.9105 1.08533 11.66 1.03527C11.4096 0.985197 11.151 0.993363 10.9042 1.05913L1.7375 3.5033C1.38254 3.59789 1.06878 3.8071 0.844992 4.0984C0.621201 4.38971 0.499919 4.74679 0.5 5.11413V5.49997"/>
</mask>
<path d="M13 2.66913H13.5V2.66899L13 2.66913ZM10.9042 1.05913L10.7754 0.575993L10.7753 0.576011L10.9042 1.05913ZM1.7375 3.5033L1.86625 3.98644L1.86632 3.98642L1.7375 3.5033ZM0.5 5.11413H1L1 5.11402L0.5 5.11413ZM13.5 3.8333V2.66913H12.5V3.8333H13.5ZM13.5 2.66899C13.4999 2.33695 13.4235 2.00938 13.2767 1.71156L12.3798 2.15373C12.4588 2.31409 12.5 2.49048 12.5 2.66927L13.5 2.66899ZM13.2767 1.71156C13.1299 1.41375 12.9166 1.15366 12.6533 0.951381L12.0441 1.7444C12.1858 1.85332 12.3007 1.99337 12.3798 2.15373L13.2767 1.71156ZM12.6533 0.951381C12.3899 0.749106 12.0837 0.610054 11.7581 0.544966L11.562 1.52556C11.7374 1.56061 11.9023 1.63549 12.0441 1.7444L12.6533 0.951381ZM11.7581 0.544966C11.4325 0.479878 11.0963 0.490493 10.7754 0.575993L11.0329 1.54227C11.2057 1.49623 11.3867 1.49052 11.562 1.52556L11.7581 0.544966ZM10.7753 0.576011L1.60868 3.02018L1.86632 3.98642L11.033 1.54225L10.7753 0.576011ZM1.60875 3.02016C1.14731 3.14313 0.739417 3.4151 0.448489 3.7938L1.24149 4.40301C1.39815 4.1991 1.61778 4.05265 1.86625 3.98644L1.60875 3.02016ZM0.448489 3.7938C0.157561 4.17249 -0.000105798 4.6367 5.96046e-08 5.11424L1 5.11402C0.999943 4.85688 1.08484 4.60693 1.24149 4.40301L0.448489 3.7938ZM2.98023e-08 5.11413V5.49997H1V5.11413H2.98023e-08Z" fill="#3A3A3A" mask="url(#path-3-outside-1_914_4278)"/>
</svg>
